# xmcd
#
# Track frame offsets:
#	150
#	16553
#	29046
#	70727
#	82599
#	95396
#	106164
#	122190
#	139027
#	150255
#	169676
#	183602
#	203398
#	213670
#	225448
#	273291
#	336592
#
# Disc length: 4751 seconds
#
# Revision: 0
# Processed by: cddbd v1.5.2PL0 Copyright (c) Steve Scherf et al.
# Submitted via: audiograbber 1.83.01
#
DISCID=d7128d11
DTITLE=Chuck Berry - Rock And Roll Music - Any Old Way You Choose It [CD 10) - 
DTITLE=Studio 1973-1974 (+1964)
DYEAR=2014
DGENRE=Rock and Roll
TTITLE0=I'm Just A Name [1975]
TTITLE1=Too Late [1975]
TTITLE2=Turn On The Houselights [instrumental] [2010]
TTITLE3=Swanee River [1975]
TTITLE4=You Are My Sunshine [1975]
TTITLE5=Johnny B. Blues [instrumental] [2010]
TTITLE6=Dust My Broom [2010]
TTITLE7=Don't You Lie To Me [1975]
TTITLE8=My Babe [1975]
TTITLE9=Here Today [2010]
TTITLE10=I Just Want To Make Love To You [1975]
TTITLE11=Rockin' [instrumental] [2010]
TTITLE12=Shake Rattle And Roll [1975]
TTITLE13=Baby What You Want Me To Do [1975]
TTITLE14=Chuck's Beat [1964]
TTITLE15=Bo's Beat [1964]
TTITLE16=Bio [1973]
EXTD=
EXTT0=
EXTT1=
EXTT2=
EXTT3=
EXTT4=
EXTT5=
EXTT6=
EXTT7=
EXTT8=
EXTT9=
EXTT10=
EXTT11=
EXTT12=
EXTT13=
EXTT14=
EXTT15=
EXTT16=
PLAYORDER=
